<?xml version="1.0" encoding="utf-8"?>
<!-- Generator: Adobe Illustrator 23.0.6, SVG Export Plug-In . SVG Version: 6.00 Build 0)  -->
<svg version="1.1" id="Группа_1" xmlns="http://www.w3.org/2000/svg" xmlns:xlink="http://www.w3.org/1999/xlink" x="0px"
	 y="0px" viewBox="0 0 2083 417" style="enable-background:new 0 0 2083 417;" xml:space="preserve">
<style type="text/css">
	.st0{fill-rule:evenodd;clip-rule:evenodd;fill:#FFFFFF;}
	.st1{fill:none;}
	.st2{enable-background:new    ;}
	.st3{fill:#FFFFFF;}
</style>
<path id="Прямоугольник_скругл._углы_1_копия" class="st0" d="M81.6,104.1l156.6-90.4
	c5.6-3.1,12.5-1.2,15.8,4.4c3.1,5.6,1.3,12.5-4.2,15.6L93.1,124.1c-5.6,3.3-12.5,1.3-15.8-4C74.1,114.7,76,107.4,81.6,104.1
	L81.6,104.1z"/>
<path id="Прямоугольник_скругл._углы_1_копия_4" class="st0" d="M74.3,297.1V116.2
	c0-6.3,5.2-11.5,11.5-11.5c6.3,0,11.5,5.2,11.5,11.5v180.9c0,6.3-5.2,11.5-11.5,11.5C79.5,308.6,74.3,303.4,74.3,297.1L74.3,297.1z"
	/>
<path id="Прямоугольник_скругл._углы_1_копия_6" class="st0" d="M389.8,297.1V116.2
	c0-6.3,5.2-11.5,11.5-11.5s11.5,5.2,11.5,11.5v180.9c0,6.3-5.2,11.5-11.5,11.5S389.8,303.4,389.8,297.1L389.8,297.1z"/>
<path id="Прямоугольник_скругл._углы_1_копия_3" class="st0" d="M395.8,124.1L239.2,33.7
	c-5.6-3.3-7.3-10.4-4-15.8c3.3-5.4,10.2-7.3,15.6-4.2l156.6,90.4c5.6,3.1,7.5,10.2,4.4,15.8C408.5,125.5,401.3,127.4,395.8,124.1
	L395.8,124.1z"/>
<path id="Прямоугольник_скругл._углы_1_копия_2" class="st0" d="M406.1,309.8l-156.4,90.4
	c-5.6,3.1-12.7,1-15.6-4.6c-2.9-5.4-1.2-12.1,4-15.4l156.4-90.4c5.6-3.1,12.7-1,15.6,4.6C413.3,299.8,411.3,306.5,406.1,309.8z"/>
<path id="Прямоугольник_скругл._углы_1_копия_5" class="st0" d="M92.5,289.8L249,380.2
	c5.4,3.3,7.1,10.4,3.8,16c-3.3,5.2-10,6.9-15.2,4L81.2,309.8c-5.4-3.3-7.1-10.4-3.8-16C80.4,288.6,87.2,286.9,92.5,289.8z"/>
<rect x="434.6" y="166.6" class="st1" width="1684.4" height="154.9"/>
<g class="st2">
	<path class="st3" d="M552.9,166.3h-73.6v74.3h73.6v-25.2l27.3,5.7v13.9c0,10.6-2,17.9-5.9,21.8c-4.2,3.9-11.9,5.9-23.2,5.9h-69.9
		c-11.2,0-19-2-23.2-5.9c-4-4-5.9-11.2-5.9-21.8v-61.7c0-10.6,2-17.8,5.9-21.8c4.2-4,11.9-5.9,23.2-5.9h69.9c11.3,0,19,2,23.2,5.9
		c4,4,5.9,11.2,5.9,21.8v11.1l-27.3,4.3V166.3z"/>
	<path class="st3" d="M598.8,262.6V145.4h27.5v48.8l65-48.8h39.5L653,200.6l87.2,62h-43.8l-70.2-51.5v51.5H598.8z"/>
	<path class="st3" d="M831.5,145.4l67.6,117.2H868l-47.4-84.7l-45.2,84.7h-27.3l64.5-117.2H831.5z"/>
	<path class="st3" d="M899.4,262.6l66-117.2h26.3l67.2,117.2h-30.6l-14.1-25.7h-74.2l-13.6,25.7H899.4z M951.9,215.8h51.3
		l-25.4-47.7L951.9,215.8z"/>
	<path class="st3" d="M1073.5,262.6v-22h15.2v-37.2c0-18.6,5.7-32.9,17-42.9c11.6-10,28.2-15,49.7-15h75.6v95.2h14.7v22H1073.5z
		 M1203.6,166.3h-48.3c-12.5,0-22.1,3.1-28.8,9.3c-7,6.5-10.5,15.6-10.5,27.3v37.7h87.6V166.3z"/>
	<path class="st3" d="M1367.9,166.3h-73.6v74.3h73.6v-25.2l27.3,5.7v13.9c0,10.6-2,17.9-5.9,21.8c-4.2,3.9-11.9,5.9-23.2,5.9h-69.9
		c-11.2,0-19-2-23.2-5.9c-4-4-5.9-11.2-5.9-21.8v-61.7c0-10.6,2-17.8,5.9-21.8c4.2-4,11.9-5.9,23.2-5.9h69.9c11.3,0,19,2,23.2,5.9
		c4,4,5.9,11.2,5.9,21.8v11.1l-27.3,4.3V166.3z"/>
	<path class="st3" d="M1489.6,166.3v96.3h-27.3v-96.3h-53.8v-20.9h135.1v20.9H1489.6z"/>
	<path class="st3" d="M1553.6,262.6V145.4h100.1c9.2,0,16,1.8,20.5,5.3c4.1,3.6,6.1,9.4,6.1,17.5v26.1c0,7.9-2.1,13.6-6.2,17.2
		c-4.3,3.7-11.1,5.5-20.5,5.5h-73.3v45.6H1553.6z M1641.7,165.7h-61.3v31.1h61.3c4.8,0,8-0.7,9.8-2.1c1.7-1.4,2.5-3.8,2.5-7.3V175
		c0-3.5-0.8-5.9-2.5-7.3C1649.8,166.3,1646.5,165.7,1641.7,165.7z"/>
	<path class="st3" d="M1717.9,173.1c0-10.6,2-17.9,5.9-21.8c4.2-4,11.9-5.9,23.2-5.9h86.3c11.3,0,19,2,23,5.9
		c4.1,3.9,6.2,11.1,6.2,21.8v61.7c0,10.7-2.1,18-6.2,21.8c-4,3.9-11.6,5.9-23,5.9H1747c-11.2,0-19-2-23.2-5.9
		c-3.9-3.9-5.9-11.2-5.9-21.8V173.1z M1745.2,240.6h89.9v-74.3h-89.9V240.6z"/>
	<path class="st3" d="M2001.8,262.6v-63.4c0-3.3,0.1-6.1,0.2-8.4c0.1-1.1,0.2-2.7,0.4-4.9s0.4-4,0.4-5.3c-1,1.2-2.5,2.7-4.3,4.5
		c-1.1,1.2-3,2.8-5.4,5l-86,72.4h-18.6V145.4h24.6V207c0,2.4-0.1,4.6-0.2,6.4c-0.1,1.3-0.2,3.4-0.4,6.2c-0.2,2.8-0.3,5.3-0.5,7.7
		c2.1-2.5,4.1-4.6,5.9-6.4c1.6-1.6,4-3.7,7.5-6.3l82.4-69.1h18.6v117.2H2001.8z M1985.4,145.4v-20h-52.9v20H1985.4z"/>
</g>
<polygon class="st3" points="214.9,164.7 279.7,172.4 314.4,125.6 376.3,131.6 376.3,281.1 243.6,359.2 110.8,285.5 110.8,217.4 
	132.9,195.7 186.2,213.4 "/>
</svg>
